solid 
 facet normal  1.000000e+00  0.000000e+00  0.000000e+00
   outer loop
     vertex  6.650000e-01  3.000000e-02  9.000000e-01
     vertex  6.650000e-01  1.000000e-01  9.100000e-01
     vertex  6.650000e-01  3.000000e-02  9.100000e-01
   endloop
 endfacet
 facet normal  1.000000e+00  0.000000e+00  0.000000e+00
   outer loop
     vertex  6.650000e-01  3.000000e-02  9.000000e-01
     vertex  6.650000e-01  1.000000e-01  9.000000e-01
     vertex  6.650000e-01  1.000000e-01  9.100000e-01
   endloop
 endfacet
 facet normal  0.000000e+00  0.000000e+00  1.000000e+00
   outer loop
     vertex  6.650000e-01  3.000000e-02  9.100000e-01
     vertex  6.600000e-01  1.000000e-01  9.100000e-01
     vertex  6.600000e-01  3.000000e-02  9.100000e-01
   endloop
 endfacet
 facet normal  0.000000e+00 -0.000000e+00  1.000000e+00
   outer loop
     vertex  6.650000e-01  3.000000e-02  9.100000e-01
     vertex  6.650000e-01  1.000000e-01  9.100000e-01
     vertex  6.600000e-01  1.000000e-01  9.100000e-01
   endloop
 endfacet
 facet normal  1.000000e+00  0.000000e+00  0.000000e+00
   outer loop
     vertex  6.600000e-01  3.000000e-02  9.100000e-01
     vertex  6.600000e-01  1.000000e-01  9.400000e-01
     vertex  6.600000e-01  3.000000e-02  9.400000e-01
   endloop
 endfacet
 facet normal  1.000000e+00  0.000000e+00  0.000000e+00
   outer loop
     vertex  6.600000e-01  3.000000e-02  9.100000e-01
     vertex  6.600000e-01  1.000000e-01  9.100000e-01
     vertex  6.600000e-01  1.000000e-01  9.400000e-01
   endloop
 endfacet
 facet normal  0.000000e+00  0.000000e+00 -1.000000e+00
   outer loop
     vertex  6.600000e-01  3.000000e-02  9.400000e-01
     vertex  6.650000e-01  1.000000e-01  9.400000e-01
     vertex  6.650000e-01  3.000000e-02  9.400000e-01
   endloop
 endfacet
 facet normal  0.000000e+00  0.000000e+00 -1.000000e+00
   outer loop
     vertex  6.600000e-01  3.000000e-02  9.400000e-01
     vertex  6.600000e-01  1.000000e-01  9.400000e-01
     vertex  6.650000e-01  1.000000e-01  9.400000e-01
   endloop
 endfacet
 facet normal  1.000000e+00  0.000000e+00  0.000000e+00
   outer loop
     vertex  6.650000e-01  3.000000e-02  9.400000e-01
     vertex  6.650000e-01  1.000000e-01  9.400000e-01
     vertex  6.650000e-01  1.000000e-01  9.500000e-01
   endloop
 endfacet
 facet normal  1.000000e+00  0.000000e+00  0.000000e+00
   outer loop
     vertex  6.650000e-01  3.000000e-02  9.400000e-01
     vertex  6.650000e-01  1.000000e-01  9.500000e-01
     vertex  6.650000e-01  3.000000e-02  9.500000e-01
   endloop
 endfacet
 facet normal  0.000000e+00  1.000000e+00  0.000000e+00
   outer loop
     vertex  7.000000e-01  3.000000e-02  9.500000e-01
     vertex  6.650000e-01  3.000000e-02  9.400000e-01
     vertex  6.650000e-01  3.000000e-02  9.500000e-01
   endloop
 endfacet
 facet normal  0.000000e+00  1.000000e+00 -0.000000e+00
   outer loop
     vertex  6.650000e-01  3.000000e-02  9.100000e-01
     vertex  6.600000e-01  3.000000e-02  9.400000e-01
     vertex  6.650000e-01  3.000000e-02  9.400000e-01
   endloop
 endfacet
 facet normal  0.000000e+00  1.000000e+00  0.000000e+00
   outer loop
     vertex  6.650000e-01  3.000000e-02  9.100000e-01
     vertex  6.600000e-01  3.000000e-02  9.100000e-01
     vertex  6.600000e-01  3.000000e-02  9.400000e-01
   endloop
 endfacet
 facet normal  0.000000e+00  1.000000e+00  0.000000e+00
   outer loop
     vertex  6.650000e-01  3.000000e-02  9.100000e-01
     vertex  6.650000e-01  3.000000e-02  9.400000e-01
     vertex  7.000000e-01  3.000000e-02  9.500000e-01
   endloop
 endfacet
 facet normal  0.000000e+00  1.000000e+00  0.000000e+00
   outer loop
     vertex  7.000000e-01  3.000000e-02  9.000000e-01
     vertex  6.650000e-01  3.000000e-02  9.000000e-01
     vertex  6.650000e-01  3.000000e-02  9.100000e-01
   endloop
 endfacet
 facet normal  0.000000e+00  1.000000e+00 -0.000000e+00
   outer loop
     vertex  7.000000e-01  3.000000e-02  9.000000e-01
     vertex  6.650000e-01  3.000000e-02  9.100000e-01
     vertex  7.000000e-01  3.000000e-02  9.500000e-01
   endloop
 endfacet
 facet normal  0.000000e+00  1.000000e+00  0.000000e+00
   outer loop
     vertex  6.600000e-01  1.000000e-01  9.100000e-01
     vertex  6.650000e-01  1.000000e-01  9.000000e-01
     vertex  6.500000e-01  1.000000e-01  9.000000e-01
   endloop
 endfacet
 facet normal  0.000000e+00  1.000000e+00  0.000000e+00
   outer loop
     vertex  6.650000e-01  1.000000e-01  9.100000e-01
     vertex  6.650000e-01  1.000000e-01  9.000000e-01
     vertex  6.600000e-01  1.000000e-01  9.100000e-01
   endloop
 endfacet
 facet normal  0.000000e+00  1.000000e+00  0.000000e+00
   outer loop
     vertex  6.500000e-01  1.000000e-01  9.500000e-01
     vertex  6.600000e-01  1.000000e-01  9.100000e-01
     vertex  6.500000e-01  1.000000e-01  9.000000e-01
   endloop
 endfacet
 facet normal  0.000000e+00  1.000000e+00  0.000000e+00
   outer loop
     vertex  6.600000e-01  1.000000e-01  9.400000e-01
     vertex  6.600000e-01  1.000000e-01  9.100000e-01
     vertex  6.500000e-01  1.000000e-01  9.500000e-01
   endloop
 endfacet
 facet normal  0.000000e+00  1.000000e+00  0.000000e+00
   outer loop
     vertex  6.650000e-01  1.000000e-01  9.500000e-01
     vertex  6.650000e-01  1.000000e-01  9.400000e-01
     vertex  6.600000e-01  1.000000e-01  9.400000e-01
   endloop
 endfacet
 facet normal  0.000000e+00  1.000000e+00  0.000000e+00
   outer loop
     vertex  6.650000e-01  1.000000e-01  9.500000e-01
     vertex  6.600000e-01  1.000000e-01  9.400000e-01
     vertex  6.500000e-01  1.000000e-01  9.500000e-01
   endloop
 endfacet
 facet normal  0.000000e+00  0.000000e+00 -1.000000e+00
   outer loop
     vertex  6.650000e-01  3.000000e-02  9.000000e-01
     vertex  6.900000e-01  2.679492e-03  9.000000e-01
     vertex  6.800000e-01  0.000000e+00  9.000000e-01
   endloop
 endfacet
 facet normal  0.000000e+00 -0.000000e+00 -1.000000e+00
   outer loop
     vertex  6.650000e-01  3.000000e-02  9.000000e-01
     vertex  6.800000e-01  0.000000e+00  9.000000e-01
     vertex  6.500000e-01  0.000000e+00  9.000000e-01
   endloop
 endfacet
 facet normal  0.000000e+00  0.000000e+00 -1.000000e+00
   outer loop
     vertex  6.500000e-01  5.000000e-02  9.000000e-01
     vertex  6.650000e-01  3.000000e-02  9.000000e-01
     vertex  6.500000e-01  0.000000e+00  9.000000e-01
   endloop
 endfacet
 facet normal -0.000000e+00  0.000000e+00 -1.000000e+00
   outer loop
     vertex  6.973205e-01  1.000000e-02  9.000000e-01
     vertex  6.900000e-01  2.679492e-03  9.000000e-01
     vertex  6.650000e-01  3.000000e-02  9.000000e-01
   endloop
 endfacet
 facet normal -0.000000e+00  0.000000e+00 -1.000000e+00
   outer loop
     vertex  7.000000e-01  2.000000e-02  9.000000e-01
     vertex  6.973205e-01  1.000000e-02  9.000000e-01
     vertex  6.650000e-01  3.000000e-02  9.000000e-01
   endloop
 endfacet
 facet normal -0.000000e+00 -0.000000e+00 -1.000000e+00
   outer loop
     vertex  7.000000e-01  3.000000e-02  9.000000e-01
     vertex  7.000000e-01  2.000000e-02  9.000000e-01
     vertex  6.650000e-01  3.000000e-02  9.000000e-01
   endloop
 endfacet
 facet normal -0.000000e+00  0.000000e+00 -1.000000e+00
   outer loop
     vertex  6.650000e-01  1.000000e-01  9.000000e-01
     vertex  6.500000e-01  5.000000e-02  9.000000e-01
     vertex  6.500000e-01  1.000000e-01  9.000000e-01
   endloop
 endfacet
 facet normal  0.000000e+00 -0.000000e+00 -1.000000e+00
   outer loop
     vertex  6.650000e-01  1.000000e-01  9.000000e-01
     vertex  6.650000e-01  3.000000e-02  9.000000e-01
     vertex  6.500000e-01  5.000000e-02  9.000000e-01
   endloop
 endfacet
 facet normal  9.659258e-01 -2.588190e-01  0.000000e+00
   outer loop
     vertex  6.973205e-01  1.000000e-02  9.000000e-01
     vertex  7.000000e-01  2.000000e-02  9.000000e-01
     vertex  7.000000e-01  2.000000e-02  9.500000e-01
   endloop
 endfacet
 facet normal  9.659258e-01 -2.588190e-01 -4.489795e-17
   outer loop
     vertex  6.973205e-01  1.000000e-02  9.000000e-01
     vertex  7.000000e-01  2.000000e-02  9.500000e-01
     vertex  6.973205e-01  1.000000e-02  9.500000e-01
   endloop
 endfacet
 facet normal  7.071068e-01 -7.071068e-01  0.000000e+00
   outer loop
     vertex  6.900000e-01  2.679492e-03  9.000000e-01
     vertex  6.973205e-01  1.000000e-02  9.500000e-01
     vertex  6.900000e-01  2.679492e-03  9.500000e-01
   endloop
 endfacet
 facet normal  7.071068e-01 -7.071068e-01 -1.309074e-16
   outer loop
     vertex  6.900000e-01  2.679492e-03  9.000000e-01
     vertex  6.973205e-01  1.000000e-02  9.000000e-01
     vertex  6.973205e-01  1.000000e-02  9.500000e-01
   endloop
 endfacet
 facet normal  2.588190e-01 -9.659258e-01  0.000000e+00
   outer loop
     vertex  6.800000e-01  0.000000e+00  9.000000e-01
     vertex  6.900000e-01  2.679492e-03  9.500000e-01
     vertex  6.800000e-01  0.000000e+00  9.500000e-01
   endloop
 endfacet
 facet normal  2.588190e-01 -9.659258e-01  0.000000e+00
   outer loop
     vertex  6.800000e-01  0.000000e+00  9.000000e-01
     vertex  6.900000e-01  2.679492e-03  9.000000e-01
     vertex  6.900000e-01  2.679492e-03  9.500000e-01
   endloop
 endfacet
 facet normal  1.000000e+00  0.000000e+00 -0.000000e+00
   outer loop
     vertex  7.000000e-01  3.000000e-02  9.000000e-01
     vertex  7.000000e-01  3.000000e-02  9.500000e-01
     vertex  7.000000e-01  2.000000e-02  9.500000e-01
   endloop
 endfacet
 facet normal  1.000000e+00  0.000000e+00  0.000000e+00
   outer loop
     vertex  7.000000e-01  3.000000e-02  9.000000e-01
     vertex  7.000000e-01  2.000000e-02  9.500000e-01
     vertex  7.000000e-01  2.000000e-02  9.000000e-01
   endloop
 endfacet
 facet normal -1.000000e+00  0.000000e+00 -0.000000e+00
   outer loop
     vertex  6.500000e-01  2.834936e-02  9.125000e-01
     vertex  6.500000e-01  3.750000e-02  9.033494e-01
     vertex  6.500000e-01  0.000000e+00  9.000000e-01
   endloop
 endfacet
 facet normal -1.000000e+00  0.000000e+00  0.000000e+00
   outer loop
     vertex  6.500000e-01  5.000000e-02  9.000000e-01
     vertex  6.500000e-01  0.000000e+00  9.000000e-01
     vertex  6.500000e-01  3.750000e-02  9.033494e-01
   endloop
 endfacet
 facet normal -1.000000e+00 -0.000000e+00  0.000000e+00
   outer loop
     vertex  6.500000e-01  2.500000e-02  9.250000e-01
     vertex  6.500000e-01  0.000000e+00  9.000000e-01
     vertex  6.500000e-01  0.000000e+00  9.500000e-01
   endloop
 endfacet
 facet normal -1.000000e+00  0.000000e+00 -0.000000e+00
   outer loop
     vertex  6.500000e-01  2.500000e-02  9.250000e-01
     vertex  6.500000e-01  2.834936e-02  9.125000e-01
     vertex  6.500000e-01  0.000000e+00  9.000000e-01
   endloop
 endfacet
 facet normal -1.000000e+00 -0.000000e+00  0.000000e+00
   outer loop
     vertex  6.500000e-01  2.834936e-02  9.375000e-01
     vertex  6.500000e-01  2.500000e-02  9.250000e-01
     vertex  6.500000e-01  0.000000e+00  9.500000e-01
   endloop
 endfacet
 facet normal -1.000000e+00 -0.000000e+00  0.000000e+00
   outer loop
     vertex  6.500000e-01  3.750000e-02  9.466506e-01
     vertex  6.500000e-01  2.834936e-02  9.375000e-01
     vertex  6.500000e-01  0.000000e+00  9.500000e-01
   endloop
 endfacet
 facet normal -1.000000e+00 -0.000000e+00  0.000000e+00
   outer loop
     vertex  6.500000e-01  5.000000e-02  9.500000e-01
     vertex  6.500000e-01  3.750000e-02  9.466506e-01
     vertex  6.500000e-01  0.000000e+00  9.500000e-01
   endloop
 endfacet
 facet normal -1.000000e+00  0.000000e+00  0.000000e+00
   outer loop
     vertex  6.500000e-01  1.000000e-01  9.000000e-01
     vertex  6.500000e-01  5.000000e-02  9.000000e-01
     vertex  6.500000e-01  7.165064e-02  9.125000e-01
   endloop
 endfacet
 facet normal -1.000000e+00  0.000000e+00  0.000000e+00
   outer loop
     vertex  6.500000e-01  1.000000e-01  9.500000e-01
     vertex  6.500000e-01  7.165064e-02  9.125000e-01
     vertex  6.500000e-01  7.165064e-02  9.375000e-01
   endloop
 endfacet
 facet normal -1.000000e+00 -0.000000e+00  0.000000e+00
   outer loop
     vertex  6.500000e-01  1.000000e-01  9.500000e-01
     vertex  6.500000e-01  7.165064e-02  9.375000e-01
     vertex  6.500000e-01  5.000000e-02  9.500000e-01
   endloop
 endfacet
 facet normal -1.000000e+00  0.000000e+00 -0.000000e+00
   outer loop
     vertex  6.500000e-01  1.000000e-01  9.500000e-01
     vertex  6.500000e-01  1.000000e-01  9.000000e-01
     vertex  6.500000e-01  7.165064e-02  9.125000e-01
   endloop
 endfacet
 facet normal  0.000000e+00 -1.000000e+00  0.000000e+00
   outer loop
     vertex  6.800000e-01  0.000000e+00  9.000000e-01
     vertex  6.800000e-01  0.000000e+00  9.500000e-01
     vertex  6.500000e-01  0.000000e+00  9.500000e-01
   endloop
 endfacet
 facet normal  0.000000e+00 -1.000000e+00  0.000000e+00
   outer loop
     vertex  6.800000e-01  0.000000e+00  9.000000e-01
     vertex  6.500000e-01  0.000000e+00  9.500000e-01
     vertex  6.500000e-01  0.000000e+00  9.000000e-01
   endloop
 endfacet
 facet normal  0.000000e+00  0.000000e+00  1.000000e+00
   outer loop
     vertex  6.500000e-01  5.000000e-02  9.500000e-01
     vertex  6.650000e-01  1.000000e-01  9.500000e-01
     vertex  6.500000e-01  1.000000e-01  9.500000e-01
   endloop
 endfacet
 facet normal  0.000000e+00  0.000000e+00  1.000000e+00
   outer loop
     vertex  6.500000e-01  0.000000e+00  9.500000e-01
     vertex  6.650000e-01  3.000000e-02  9.500000e-01
     vertex  6.500000e-01  5.000000e-02  9.500000e-01
   endloop
 endfacet
 facet normal  0.000000e+00  0.000000e+00  1.000000e+00
   outer loop
     vertex  6.800000e-01  0.000000e+00  9.500000e-01
     vertex  6.650000e-01  3.000000e-02  9.500000e-01
     vertex  6.500000e-01  0.000000e+00  9.500000e-01
   endloop
 endfacet
 facet normal  0.000000e+00 -0.000000e+00  1.000000e+00
   outer loop
     vertex  7.000000e-01  2.000000e-02  9.500000e-01
     vertex  7.000000e-01  3.000000e-02  9.500000e-01
     vertex  6.650000e-01  3.000000e-02  9.500000e-01
   endloop
 endfacet
 facet normal  0.000000e+00 -0.000000e+00  1.000000e+00
   outer loop
     vertex  6.973205e-01  1.000000e-02  9.500000e-01
     vertex  7.000000e-01  2.000000e-02  9.500000e-01
     vertex  6.650000e-01  3.000000e-02  9.500000e-01
   endloop
 endfacet
 facet normal  0.000000e+00  0.000000e+00  1.000000e+00
   outer loop
     vertex  6.900000e-01  2.679492e-03  9.500000e-01
     vertex  6.650000e-01  3.000000e-02  9.500000e-01
     vertex  6.800000e-01  0.000000e+00  9.500000e-01
   endloop
 endfacet
 facet normal  0.000000e+00 -0.000000e+00  1.000000e+00
   outer loop
     vertex  6.900000e-01  2.679492e-03  9.500000e-01
     vertex  6.973205e-01  1.000000e-02  9.500000e-01
     vertex  6.650000e-01  3.000000e-02  9.500000e-01
   endloop
 endfacet
 facet normal  0.000000e+00 -0.000000e+00  1.000000e+00
   outer loop
     vertex  6.650000e-01  3.000000e-02  9.500000e-01
     vertex  6.650000e-01  1.000000e-01  9.500000e-01
     vertex  6.500000e-01  5.000000e-02  9.500000e-01
   endloop
 endfacet
 facet normal  0.000000e+00 -9.659258e-01 -2.588190e-01
   outer loop
     vertex  6.500000e-01  2.834936e-02  9.125000e-01
     vertex  6.500000e-01  2.500000e-02  9.250000e-01
     vertex  1.500000e-01  2.500000e-02  9.250000e-01
   endloop
 endfacet
 facet normal -1.293987e-02 -7.070476e-01 -7.070476e-01
   outer loop
     vertex  6.500000e-01  3.750000e-02  9.033494e-01
     vertex  1.500000e-01  2.500000e-02  9.250000e-01
     vertex  1.500000e-01  5.000000e-02  9.000000e-01
   endloop
 endfacet
 facet normal -1.293987e-02 -7.070476e-01 -7.070476e-01
   outer loop
     vertex  6.500000e-01  3.750000e-02  9.033494e-01
     vertex  6.500000e-01  2.834936e-02  9.125000e-01
     vertex  1.500000e-01  2.500000e-02  9.250000e-01
   endloop
 endfacet
 facet normal  3.591836e-18 -2.588190e-01 -9.659258e-01
   outer loop
     vertex  6.500000e-01  5.000000e-02  9.000000e-01
     vertex  6.500000e-01  3.750000e-02  9.033494e-01
     vertex  1.500000e-01  5.000000e-02  9.000000e-01
   endloop
 endfacet
 facet normal -1.293987e-02  7.070476e-01 -7.070476e-01
   outer loop
     vertex  6.500000e-01  7.165064e-02  9.125000e-01
     vertex  1.500000e-01  5.000000e-02  9.000000e-01
     vertex  1.500000e-01  7.500000e-02  9.250000e-01
   endloop
 endfacet
 facet normal -8.673617e-18  5.000000e-01 -8.660254e-01
   outer loop
     vertex  6.500000e-01  7.165064e-02  9.125000e-01
     vertex  6.500000e-01  5.000000e-02  9.000000e-01
     vertex  1.500000e-01  5.000000e-02  9.000000e-01
   endloop
 endfacet
 facet normal -1.293987e-02  7.070476e-01  7.070476e-01
   outer loop
     vertex  6.500000e-01  7.165064e-02  9.375000e-01
     vertex  1.500000e-01  7.500000e-02  9.250000e-01
     vertex  1.500000e-01  5.000000e-02  9.500000e-01
   endloop
 endfacet
 facet normal  6.698580e-03  9.999776e-01 -5.550991e-16
   outer loop
     vertex  6.500000e-01  7.165064e-02  9.375000e-01
     vertex  6.500000e-01  7.165064e-02  9.125000e-01
     vertex  1.500000e-01  7.500000e-02  9.250000e-01
   endloop
 endfacet
 facet normal  6.938894e-18  5.000000e-01  8.660254e-01
   outer loop
     vertex  6.500000e-01  5.000000e-02  9.500000e-01
     vertex  6.500000e-01  7.165064e-02  9.375000e-01
     vertex  1.500000e-01  5.000000e-02  9.500000e-01
   endloop
 endfacet
 facet normal -4.189036e-18 -2.588190e-01  9.659258e-01
   outer loop
     vertex  6.500000e-01  3.750000e-02  9.466506e-01
     vertex  6.500000e-01  5.000000e-02  9.500000e-01
     vertex  1.500000e-01  5.000000e-02  9.500000e-01
   endloop
 endfacet
 facet normal -1.293987e-02 -7.070476e-01  7.070476e-01
   outer loop
     vertex  6.500000e-01  2.834936e-02  9.375000e-01
     vertex  1.500000e-01  5.000000e-02  9.500000e-01
     vertex  1.500000e-01  2.500000e-02  9.250000e-01
   endloop
 endfacet
 facet normal -1.293987e-02 -7.070476e-01  7.070476e-01
   outer loop
     vertex  6.500000e-01  2.834936e-02  9.375000e-01
     vertex  6.500000e-01  3.750000e-02  9.466506e-01
     vertex  1.500000e-01  5.000000e-02  9.500000e-01
   endloop
 endfacet
 facet normal  0.000000e+00 -9.659258e-01  2.588190e-01
   outer loop
     vertex  6.500000e-01  2.500000e-02  9.250000e-01
     vertex  6.500000e-01  2.834936e-02  9.375000e-01
     vertex  1.500000e-01  2.500000e-02  9.250000e-01
   endloop
 endfacet
 facet normal -1.000000e+00  0.000000e+00  0.000000e+00
   outer loop
     vertex  1.500000e-01  5.000000e-02  9.500000e-01
     vertex  1.500000e-01  5.000000e-02  9.000000e-01
     vertex  1.500000e-01  2.500000e-02  9.250000e-01
   endloop
 endfacet
 facet normal -1.000000e+00  0.000000e+00 -0.000000e+00
   outer loop
     vertex  1.500000e-01  5.000000e-02  9.500000e-01
     vertex  1.500000e-01  7.500000e-02  9.250000e-01
     vertex  1.500000e-01  5.000000e-02  9.000000e-01
   endloop
 endfacet
endsolid
