solid 
 facet normal  0.000000e+00  7.071068e-01 -7.071068e-01
   outer loop
     vertex  1.500000e-01  5.000000e-02  9.500000e-01
     vertex  4.500000e-01  2.500000e-02  9.250000e-01
     vertex  1.500000e-01  2.500000e-02  9.250000e-01
   endloop
 endfacet
 facet normal  0.000000e+00  7.071068e-01 -7.071068e-01
   outer loop
     vertex  1.500000e-01  5.000000e-02  9.500000e-01
     vertex  4.500000e-01  5.000000e-02  9.500000e-01
     vertex  4.500000e-01  2.500000e-02  9.250000e-01
   endloop
 endfacet
 facet normal  0.000000e+00 -7.071068e-01 -7.071068e-01
   outer loop
     vertex  1.500000e-01  7.500000e-02  9.250000e-01
     vertex  4.500000e-01  7.500000e-02  9.250000e-01
     vertex  4.500000e-01  5.000000e-02  9.500000e-01
   endloop
 endfacet
 facet normal  0.000000e+00 -7.071068e-01 -7.071068e-01
   outer loop
     vertex  1.500000e-01  7.500000e-02  9.250000e-01
     vertex  4.500000e-01  5.000000e-02  9.500000e-01
     vertex  1.500000e-01  5.000000e-02  9.500000e-01
   endloop
 endfacet
 facet normal  0.000000e+00 -7.071068e-01  7.071068e-01
   outer loop
     vertex  1.500000e-01  5.000000e-02  9.000000e-01
     vertex  4.500000e-01  5.000000e-02  9.000000e-01
     vertex  4.500000e-01  7.500000e-02  9.250000e-01
   endloop
 endfacet
 facet normal  0.000000e+00 -7.071068e-01  7.071068e-01
   outer loop
     vertex  1.500000e-01  5.000000e-02  9.000000e-01
     vertex  4.500000e-01  7.500000e-02  9.250000e-01
     vertex  1.500000e-01  7.500000e-02  9.250000e-01
   endloop
 endfacet
 facet normal -0.000000e+00  7.071068e-01  7.071068e-01
   outer loop
     vertex  1.500000e-01  2.500000e-02  9.250000e-01
     vertex  4.500000e-01  2.500000e-02  9.250000e-01
     vertex  4.500000e-01  5.000000e-02  9.000000e-01
   endloop
 endfacet
 facet normal  0.000000e+00  7.071068e-01  7.071068e-01
   outer loop
     vertex  1.500000e-01  2.500000e-02  9.250000e-01
     vertex  4.500000e-01  5.000000e-02  9.000000e-01
     vertex  1.500000e-01  5.000000e-02  9.000000e-01
   endloop
 endfacet
 facet normal  1.000000e+00  0.000000e+00  0.000000e+00
   outer loop
     vertex  1.500000e-01  7.500000e-02  9.250000e-01
     vertex  1.500000e-01  5.000000e-02  9.500000e-01
     vertex  1.500000e-01  2.500000e-02  9.250000e-01
   endloop
 endfacet
 facet normal  1.000000e+00  0.000000e+00  0.000000e+00
   outer loop
     vertex  1.500000e-01  7.500000e-02  9.250000e-01
     vertex  1.500000e-01  2.500000e-02  9.250000e-01
     vertex  1.500000e-01  5.000000e-02  9.000000e-01
   endloop
 endfacet
 facet normal  7.071068e-01  0.000000e+00 -7.071068e-01
   outer loop
     vertex  1.530808e-17  1.000000e-01  9.250000e-01
     vertex -5.000000e-02  0.000000e+00  8.750000e-01
     vertex -5.000000e-02  1.000000e-01  8.750000e-01
   endloop
 endfacet
 facet normal  7.071068e-01  0.000000e+00 -7.071068e-01
   outer loop
     vertex  1.530808e-17  1.000000e-01  9.250000e-01
     vertex  1.530808e-17  0.000000e+00  9.250000e-01
     vertex -5.000000e-02  0.000000e+00  8.750000e-01
   endloop
 endfacet
 facet normal -7.071068e-01 -0.000000e+00 -7.071068e-01
   outer loop
     vertex  5.000000e-02  1.000000e-01  8.750000e-01
     vertex  5.000000e-02  0.000000e+00  8.750000e-01
     vertex  1.530808e-17  0.000000e+00  9.250000e-01
   endloop
 endfacet
 facet normal -7.071068e-01  0.000000e+00 -7.071068e-01
   outer loop
     vertex  5.000000e-02  1.000000e-01  8.750000e-01
     vertex  1.530808e-17  0.000000e+00  9.250000e-01
     vertex  1.530808e-17  1.000000e-01  9.250000e-01
   endloop
 endfacet
 facet normal -7.071068e-01  0.000000e+00  7.071068e-01
   outer loop
     vertex -9.184851e-18  1.000000e-01  8.250000e-01
     vertex -9.184851e-18  0.000000e+00  8.250000e-01
     vertex  5.000000e-02  0.000000e+00  8.750000e-01
   endloop
 endfacet
 facet normal -7.071068e-01  0.000000e+00  7.071068e-01
   outer loop
     vertex -9.184851e-18  1.000000e-01  8.250000e-01
     vertex  5.000000e-02  0.000000e+00  8.750000e-01
     vertex  5.000000e-02  1.000000e-01  8.750000e-01
   endloop
 endfacet
 facet normal  7.071068e-01  0.000000e+00  7.071068e-01
   outer loop
     vertex -5.000000e-02  1.000000e-01  8.750000e-01
     vertex -5.000000e-02  0.000000e+00  8.750000e-01
     vertex -9.184851e-18  0.000000e+00  8.250000e-01
   endloop
 endfacet
 facet normal  7.071068e-01  0.000000e+00  7.071068e-01
   outer loop
     vertex -5.000000e-02  1.000000e-01  8.750000e-01
     vertex -9.184851e-18  0.000000e+00  8.250000e-01
     vertex -9.184851e-18  1.000000e-01  8.250000e-01
   endloop
 endfacet
 facet normal  0.000000e+00  0.000000e+00 -1.000000e+00
   outer loop
     vertex  0.000000e+00  1.000000e-01  7.750000e-01
     vertex  1.000000e-01  0.000000e+00  7.750000e-01
     vertex  0.000000e+00  0.000000e+00  7.750000e-01
   endloop
 endfacet
 facet normal  0.000000e+00  0.000000e+00 -1.000000e+00
   outer loop
     vertex  0.000000e+00  1.000000e-01  7.750000e-01
     vertex  1.000000e-01  1.000000e-01  7.750000e-01
     vertex  1.000000e-01  0.000000e+00  7.750000e-01
   endloop
 endfacet
 facet normal  2.747211e-01  0.000000e+00 -9.615239e-01
   outer loop
     vertex  1.000000e-01  1.000000e-01  7.750000e-01
     vertex  4.500000e-01  0.000000e+00  8.750000e-01
     vertex  1.000000e-01  0.000000e+00  7.750000e-01
   endloop
 endfacet
 facet normal  2.747211e-01  0.000000e+00 -9.615239e-01
   outer loop
     vertex  1.000000e-01  1.000000e-01  7.750000e-01
     vertex  4.500000e-01  1.000000e-01  8.750000e-01
     vertex  4.500000e-01  0.000000e+00  8.750000e-01
   endloop
 endfacet
 facet normal  1.000000e+00  0.000000e+00  0.000000e+00
   outer loop
     vertex  4.500000e-01  5.000000e-02  9.500000e-01
     vertex  4.500000e-01  0.000000e+00  9.750000e-01
     vertex  4.500000e-01  2.500000e-02  9.250000e-01
   endloop
 endfacet
 facet normal  1.000000e+00  0.000000e+00  0.000000e+00
   outer loop
     vertex  4.500000e-01  0.000000e+00  8.750000e-01
     vertex  4.500000e-01  2.500000e-02  9.250000e-01
     vertex  4.500000e-01  0.000000e+00  9.750000e-01
   endloop
 endfacet
 facet normal  1.000000e+00  0.000000e+00  0.000000e+00
   outer loop
     vertex  4.500000e-01  1.000000e-01  9.750000e-01
     vertex  4.500000e-01  0.000000e+00  9.750000e-01
     vertex  4.500000e-01  5.000000e-02  9.500000e-01
   endloop
 endfacet
 facet normal  1.000000e+00  0.000000e+00  0.000000e+00
   outer loop
     vertex  4.500000e-01  5.000000e-02  9.000000e-01
     vertex  4.500000e-01  2.500000e-02  9.250000e-01
     vertex  4.500000e-01  0.000000e+00  8.750000e-01
   endloop
 endfacet
 facet normal  1.000000e+00  0.000000e+00 -0.000000e+00
   outer loop
     vertex  4.500000e-01  7.500000e-02  9.250000e-01
     vertex  4.500000e-01  1.000000e-01  9.750000e-01
     vertex  4.500000e-01  5.000000e-02  9.500000e-01
   endloop
 endfacet
 facet normal  1.000000e+00  0.000000e+00  0.000000e+00
   outer loop
     vertex  4.500000e-01  1.000000e-01  8.750000e-01
     vertex  4.500000e-01  7.500000e-02  9.250000e-01
     vertex  4.500000e-01  5.000000e-02  9.000000e-01
   endloop
 endfacet
 facet normal  1.000000e+00  0.000000e+00  0.000000e+00
   outer loop
     vertex  4.500000e-01  1.000000e-01  8.750000e-01
     vertex  4.500000e-01  5.000000e-02  9.000000e-01
     vertex  4.500000e-01  0.000000e+00  8.750000e-01
   endloop
 endfacet
 facet normal  1.000000e+00  0.000000e+00 -0.000000e+00
   outer loop
     vertex  4.500000e-01  1.000000e-01  8.750000e-01
     vertex  4.500000e-01  1.000000e-01  9.750000e-01
     vertex  4.500000e-01  7.500000e-02  9.250000e-01
   endloop
 endfacet
 facet normal  0.000000e+00  0.000000e+00  1.000000e+00
   outer loop
     vertex  4.500000e-01  1.000000e-01  9.750000e-01
     vertex -1.224647e-17  0.000000e+00  9.750000e-01
     vertex  4.500000e-01  0.000000e+00  9.750000e-01
   endloop
 endfacet
 facet normal  0.000000e+00  0.000000e+00  1.000000e+00
   outer loop
     vertex  4.500000e-01  1.000000e-01  9.750000e-01
     vertex -8.881784e-18  1.000000e-01  9.750000e-01
     vertex -1.224647e-17  0.000000e+00  9.750000e-01
   endloop
 endfacet
 facet normal -3.826834e-01 -0.000000e+00 -9.238795e-01
   outer loop
     vertex -7.071068e-02  1.000000e-01  8.042893e-01
     vertex  0.000000e+00  0.000000e+00  7.750000e-01
     vertex -7.071068e-02  0.000000e+00  8.042893e-01
   endloop
 endfacet
 facet normal -3.826834e-01  0.000000e+00 -9.238795e-01
   outer loop
     vertex -7.071068e-02  1.000000e-01  8.042893e-01
     vertex  0.000000e+00  1.000000e-01  7.750000e-01
     vertex  0.000000e+00  0.000000e+00  7.750000e-01
   endloop
 endfacet
 facet normal -9.238795e-01 -0.000000e+00 -3.826834e-01
   outer loop
     vertex -1.000000e-01  1.000000e-01  8.750000e-01
     vertex -7.071068e-02  0.000000e+00  8.042893e-01
     vertex -1.000000e-01  0.000000e+00  8.750000e-01
   endloop
 endfacet
 facet normal -9.238795e-01  0.000000e+00 -3.826834e-01
   outer loop
     vertex -1.000000e-01  1.000000e-01  8.750000e-01
     vertex -7.071068e-02  1.000000e-01  8.042893e-01
     vertex -7.071068e-02  0.000000e+00  8.042893e-01
   endloop
 endfacet
 facet normal -9.238795e-01  0.000000e+00  3.826834e-01
   outer loop
     vertex -7.071068e-02  1.000000e-01  9.457107e-01
     vertex -1.000000e-01  0.000000e+00  8.750000e-01
     vertex -7.071068e-02  0.000000e+00  9.457107e-01
   endloop
 endfacet
 facet normal -9.238795e-01  0.000000e+00  3.826834e-01
   outer loop
     vertex -7.071068e-02  1.000000e-01  9.457107e-01
     vertex -1.000000e-01  1.000000e-01  8.750000e-01
     vertex -1.000000e-01  0.000000e+00  8.750000e-01
   endloop
 endfacet
 facet normal -3.826834e-01  1.287609e-17  9.238795e-01
   outer loop
     vertex -8.881784e-18  1.000000e-01  9.750000e-01
     vertex -7.071068e-02  0.000000e+00  9.457107e-01
     vertex -1.224647e-17  0.000000e+00  9.750000e-01
   endloop
 endfacet
 facet normal -3.826834e-01  0.000000e+00  9.238795e-01
   outer loop
     vertex -8.881784e-18  1.000000e-01  9.750000e-01
     vertex -7.071068e-02  1.000000e-01  9.457107e-01
     vertex -7.071068e-02  0.000000e+00  9.457107e-01
   endloop
 endfacet
 facet normal  0.000000e+00  1.000000e+00  0.000000e+00
   outer loop
     vertex -5.000000e-02  1.000000e-01  8.750000e-01
     vertex -1.000000e-01  1.000000e-01  8.750000e-01
     vertex -7.071068e-02  1.000000e-01  9.457107e-01
   endloop
 endfacet
 facet normal  0.000000e+00  1.000000e+00  0.000000e+00
   outer loop
     vertex  1.530808e-17  1.000000e-01  9.250000e-01
     vertex -7.071068e-02  1.000000e-01  9.457107e-01
     vertex -8.881784e-18  1.000000e-01  9.750000e-01
   endloop
 endfacet
 facet normal  0.000000e+00  1.000000e+00  0.000000e+00
   outer loop
     vertex  1.530808e-17  1.000000e-01  9.250000e-01
     vertex -5.000000e-02  1.000000e-01  8.750000e-01
     vertex -7.071068e-02  1.000000e-01  9.457107e-01
   endloop
 endfacet
 facet normal  0.000000e+00  1.000000e+00 -0.000000e+00
   outer loop
     vertex -7.071068e-02  1.000000e-01  8.042893e-01
     vertex -1.000000e-01  1.000000e-01  8.750000e-01
     vertex -5.000000e-02  1.000000e-01  8.750000e-01
   endloop
 endfacet
 facet normal  0.000000e+00  1.000000e+00  0.000000e+00
   outer loop
     vertex -9.184851e-18  1.000000e-01  8.250000e-01
     vertex -7.071068e-02  1.000000e-01  8.042893e-01
     vertex -5.000000e-02  1.000000e-01  8.750000e-01
   endloop
 endfacet
 facet normal  0.000000e+00  1.000000e+00  0.000000e+00
   outer loop
     vertex  5.000000e-02  1.000000e-01  8.750000e-01
     vertex  1.530808e-17  1.000000e-01  9.250000e-01
     vertex -8.881784e-18  1.000000e-01  9.750000e-01
   endloop
 endfacet
 facet normal  0.000000e+00  1.000000e+00  0.000000e+00
   outer loop
     vertex  0.000000e+00  1.000000e-01  7.750000e-01
     vertex -7.071068e-02  1.000000e-01  8.042893e-01
     vertex -9.184851e-18  1.000000e-01  8.250000e-01
   endloop
 endfacet
 facet normal  0.000000e+00  1.000000e+00  0.000000e+00
   outer loop
     vertex  1.000000e-01  1.000000e-01  7.750000e-01
     vertex -9.184851e-18  1.000000e-01  8.250000e-01
     vertex  5.000000e-02  1.000000e-01  8.750000e-01
   endloop
 endfacet
 facet normal  0.000000e+00  1.000000e+00  0.000000e+00
   outer loop
     vertex  1.000000e-01  1.000000e-01  7.750000e-01
     vertex  0.000000e+00  1.000000e-01  7.750000e-01
     vertex -9.184851e-18  1.000000e-01  8.250000e-01
   endloop
 endfacet
 facet normal  0.000000e+00  1.000000e+00  0.000000e+00
   outer loop
     vertex  4.500000e-01  1.000000e-01  9.750000e-01
     vertex  5.000000e-02  1.000000e-01  8.750000e-01
     vertex -8.881784e-18  1.000000e-01  9.750000e-01
   endloop
 endfacet
 facet normal  0.000000e+00  1.000000e+00  0.000000e+00
   outer loop
     vertex  4.500000e-01  1.000000e-01  8.750000e-01
     vertex  1.000000e-01  1.000000e-01  7.750000e-01
     vertex  5.000000e-02  1.000000e-01  8.750000e-01
   endloop
 endfacet
 facet normal  0.000000e+00  1.000000e+00 -0.000000e+00
   outer loop
     vertex  4.500000e-01  1.000000e-01  8.750000e-01
     vertex  5.000000e-02  1.000000e-01  8.750000e-01
     vertex  4.500000e-01  1.000000e-01  9.750000e-01
   endloop
 endfacet
 facet normal  0.000000e+00 -1.000000e+00  0.000000e+00
   outer loop
     vertex -5.000000e-02  0.000000e+00  8.750000e-01
     vertex -7.071068e-02  0.000000e+00  9.457107e-01
     vertex -1.000000e-01  0.000000e+00  8.750000e-01
   endloop
 endfacet
 facet normal  0.000000e+00 -1.000000e+00  0.000000e+00
   outer loop
     vertex  1.530808e-17  0.000000e+00  9.250000e-01
     vertex -1.224647e-17  0.000000e+00  9.750000e-01
     vertex -7.071068e-02  0.000000e+00  9.457107e-01
   endloop
 endfacet
 facet normal -0.000000e+00 -1.000000e+00  0.000000e+00
   outer loop
     vertex  1.530808e-17  0.000000e+00  9.250000e-01
     vertex -7.071068e-02  0.000000e+00  9.457107e-01
     vertex -5.000000e-02  0.000000e+00  8.750000e-01
   endloop
 endfacet
 facet normal  0.000000e+00 -1.000000e+00  0.000000e+00
   outer loop
     vertex -7.071068e-02  0.000000e+00  8.042893e-01
     vertex -5.000000e-02  0.000000e+00  8.750000e-01
     vertex -1.000000e-01  0.000000e+00  8.750000e-01
   endloop
 endfacet
 facet normal -0.000000e+00 -1.000000e+00  0.000000e+00
   outer loop
     vertex -9.184851e-18  0.000000e+00  8.250000e-01
     vertex -5.000000e-02  0.000000e+00  8.750000e-01
     vertex -7.071068e-02  0.000000e+00  8.042893e-01
   endloop
 endfacet
 facet normal  0.000000e+00 -1.000000e+00  0.000000e+00
   outer loop
     vertex  5.000000e-02  0.000000e+00  8.750000e-01
     vertex -1.224647e-17  0.000000e+00  9.750000e-01
     vertex  1.530808e-17  0.000000e+00  9.250000e-01
   endloop
 endfacet
 facet normal  0.000000e+00 -1.000000e+00  0.000000e+00
   outer loop
     vertex  0.000000e+00  0.000000e+00  7.750000e-01
     vertex -9.184851e-18  0.000000e+00  8.250000e-01
     vertex -7.071068e-02  0.000000e+00  8.042893e-01
   endloop
 endfacet
 facet normal  0.000000e+00 -1.000000e+00  0.000000e+00
   outer loop
     vertex  1.000000e-01  0.000000e+00  7.750000e-01
     vertex  5.000000e-02  0.000000e+00  8.750000e-01
     vertex -9.184851e-18  0.000000e+00  8.250000e-01
   endloop
 endfacet
 facet normal  0.000000e+00 -1.000000e+00  0.000000e+00
   outer loop
     vertex  1.000000e-01  0.000000e+00  7.750000e-01
     vertex -9.184851e-18  0.000000e+00  8.250000e-01
     vertex  0.000000e+00  0.000000e+00  7.750000e-01
   endloop
 endfacet
 facet normal -0.000000e+00 -1.000000e+00  0.000000e+00
   outer loop
     vertex  4.500000e-01  0.000000e+00  9.750000e-01
     vertex -1.224647e-17  0.000000e+00  9.750000e-01
     vertex  5.000000e-02  0.000000e+00  8.750000e-01
   endloop
 endfacet
 facet normal -0.000000e+00 -1.000000e+00  0.000000e+00
   outer loop
     vertex  4.500000e-01  0.000000e+00  8.750000e-01
     vertex  5.000000e-02  0.000000e+00  8.750000e-01
     vertex  1.000000e-01  0.000000e+00  7.750000e-01
   endloop
 endfacet
 facet normal  0.000000e+00 -1.000000e+00  0.000000e+00
   outer loop
     vertex  4.500000e-01  0.000000e+00  8.750000e-01
     vertex  4.500000e-01  0.000000e+00  9.750000e-01
     vertex  5.000000e-02  0.000000e+00  8.750000e-01
   endloop
 endfacet
endsolid
